HIERARCHY
ROOT Hips
{
	OFFSET 0.000000 0.000000 0.000000
	CHANNELS 6 Xposition Yposition Zposition Zrotation Yrotation Xrotation 
	JOINT LHipJoint
	{
		OFFSET 0.000000 0.000000 0.000000
		CHANNELS 3 Zrotation Yrotation Xrotation
		JOINT LeftUpLeg
		{
			OFFSET 1.363060 -1.794630 0.839290
			CHANNELS 3 Zrotation Yrotation Xrotation
			JOINT LeftLeg
			{
				OFFSET 2.448110 -6.726130 0.000000
				CHANNELS 3 Zrotation Yrotation Xrotation
				JOINT LeftFoot
				{
					OFFSET 2.562200 -7.039590 0.000000
					CHANNELS 3 Zrotation Yrotation Xrotation
					JOINT LeftToeBase
					{
						OFFSET 0.157640 -0.433110 2.322550
						CHANNELS 3 Zrotation Yrotation Xrotation
						End Site
						{
							OFFSET 0.000000 0.000000 0.000000
						}
					}
				}
			}
		}
	}
	JOINT RHipJoint
	{
		OFFSET 0.000000 0.000000 0.000000
		CHANNELS 3 Zrotation Yrotation Xrotation
		JOINT RightUpLeg
		{
			OFFSET -1.305520 -1.794630 0.839290
			CHANNELS 3 Zrotation Yrotation Xrotation
			JOINT RightLeg
			{
				OFFSET -2.542530 -6.985550 0.000000
				CHANNELS 3 Zrotation Yrotation Xrotation
				JOINT RightFoot
				{
					OFFSET -2.568260 -7.056230 0.000000
					CHANNELS 3 Zrotation Yrotation Xrotation
					JOINT RightToeBase
					{
						OFFSET -0.164730 -0.452590 2.363150
						CHANNELS 3 Zrotation Yrotation Xrotation
						End Site
						{
							OFFSET 0.000000 0.000000 0.000000
						}
					}
				}
			}
		}
	}
	JOINT LowerBack
	{
		OFFSET 0.000000 0.000000 0.000000
		CHANNELS 3 Zrotation Yrotation Xrotation
		JOINT Spine
		{
			OFFSET 0.028270 2.035590 -0.193380
			CHANNELS 3 Zrotation Yrotation Xrotation
			JOINT Spine1
			{
				OFFSET 0.056720 2.048850 -0.042750
				CHANNELS 3 Zrotation Yrotation Xrotation
				JOINT Neck
				{
					OFFSET 0.000000 0.000000 0.000000
					CHANNELS 3 Zrotation Yrotation Xrotation
					JOINT Neck1
					{
						OFFSET -0.054170 1.746240 0.172020
						CHANNELS 3 Zrotation Yrotation Xrotation
						JOINT Head
						{
							OFFSET 0.104070 1.761360 -0.123970
							CHANNELS 3 Zrotation Yrotation Xrotation
							End Site
							{
								OFFSET 0.000000 0.000000 0.000000
							}
						}
					}
				}
				JOINT LeftShoulder
				{
					OFFSET 0.000000 0.000000 0.000000
					CHANNELS 3 Zrotation Yrotation Xrotation
					JOINT LeftArm
					{
						OFFSET 3.362410 1.200890 -0.311210
						CHANNELS 3 Zrotation Yrotation Xrotation
						JOINT LeftForeArm
						{
							OFFSET 4.983000 -0.000000 -0.000000
							CHANNELS 3 Zrotation Yrotation Xrotation
							JOINT LeftHand
							{
								OFFSET 3.483560 -0.000000 -0.000000
								CHANNELS 3 Zrotation Yrotation Xrotation
								JOINT LeftFingerBase
								{
									OFFSET 0.000000 0.000000 0.000000
									CHANNELS 3 Zrotation Yrotation Xrotation
									JOINT LeftHandIndex1
									{
										OFFSET 0.715260 -0.000000 -0.000000
										CHANNELS 3 Zrotation Yrotation Xrotation
										End Site
										{
											OFFSET 0.000000 0.000000 0.000000
										}
									}
								}
								JOINT LThumb
								{
									OFFSET 0.000000 0.000000 0.000000
									CHANNELS 3 Zrotation Yrotation Xrotation
									End Site
									{
										OFFSET 0.000000 0.000000 0.000000
									}
								}
							}
						}
					}
				}
				JOINT RightShoulder
				{
					OFFSET 0.000000 0.000000 0.000000
					CHANNELS 3 Zrotation Yrotation Xrotation
					JOINT RightArm
					{
						OFFSET -3.136600 1.374050 -0.404650
						CHANNELS 3 Zrotation Yrotation Xrotation
						JOINT RightForeArm
						{
							OFFSET -5.241900 -0.000000 -0.000000
							CHANNELS 3 Zrotation Yrotation Xrotation
							JOINT RightHand
							{
								OFFSET -3.444170 -0.000000 -0.000000
								CHANNELS 3 Zrotation Yrotation Xrotation
								JOINT RightFingerBase
								{
									OFFSET 0.000000 0.000000 0.000000
									CHANNELS 3 Zrotation Yrotation Xrotation
									JOINT RightHandIndex1
									{
										OFFSET -0.622530 -0.000000 -0.000000
										CHANNELS 3 Zrotation Yrotation Xrotation
										End Site
										{
											OFFSET 0.000000 0.000000 0.000000
										}
									}
								}
								JOINT RThumb
								{
									OFFSET 0.000000 0.000000 0.000000
									CHANNELS 3 Zrotation Yrotation Xrotation
									End Site
									{
										OFFSET 0.000000 0.000000 0.000000
									}
								}
							}
						}
					}
				}
			}
		}
	}
}
MOTION
Frames: 10
Frame Time: 0.008333
4.946403 17.394355 0.798547 -178.937875 -74.258847 -161.131640 -10.647584 0.068166 -4.158551 -10.174858 22.273941 -20.984064 -2.835983 -1.082928 -1.749210 1.903666 14.494643 3.353973 3.087800 0.000000 -38.949400 9.559404 -0.114256 2.211904 0.492519 7.792092 -20.580131 2.186589 1.081487 -4.790890 0.269628 0.092200 11.117409 -0.637600 0.000000 -62.854700 -0.856615 -0.634572 3.520580 -0.831704 -0.471956 -2.599532 -6.274090 -0.375822 -1.841991 5.511313 -7.455691 -0.587332 -2.645932 -0.277443 1.769031 0.000000 0.000000 0.000000 5.102859 -0.150933 -0.290235 -61.071506 -3.245516 25.234851 -179.426112 -74.192709 179.951511 7.121225 -0.157992 -0.035448 -0.190742 0.442742 -0.000000 0.000000 0.000000 0.000000 0.000000 0.000000 0.000000 1.186692 -3.487131 -0.867307 79.749979 12.627956 39.105488 179.972898 81.690992 179.925533 -11.012109 6.182088 -0.660030 0.223992 -0.544041 -0.000000 0.000000 0.000000 0.000000 0.000000 0.000000 0.000000 
4.951116 17.394875 0.797868 -178.994391 -73.816501 -161.185460 -10.642628 0.090779 -4.196593 -10.183963 22.477501 -20.941488 -2.834847 -1.062975 -1.530351 1.936732 14.685494 3.220932 3.091400 0.000000 -38.819100 9.558303 -0.115476 2.267882 0.410744 8.028195 -20.621047 2.184394 1.064989 -4.661611 0.294603 0.266908 11.142483 -0.578000 0.000000 -62.905100 -0.730860 -0.629187 3.502199 -0.829173 -0.477388 -2.572226 -6.350264 -0.379075 -1.719462 5.400616 -7.461701 -0.485941 -2.614863 -0.276866 1.796299 0.000000 0.000000 0.000000 5.184162 -0.227435 -0.202967 -59.193129 -4.136258 25.802311 -179.388268 -74.196555 179.955650 6.633636 0.086972 -0.017657 -0.185451 0.430444 -0.000000 0.000000 0.000000 0.000000 0.000000 0.000000 0.000000 0.997820 -3.520099 -0.886491 79.704531 12.926743 39.625286 179.969141 81.598632 179.926065 -10.968905 6.150865 -0.654426 0.225149 -0.543354 -0.000000 0.000000 0.000000 0.000000 0.000000 0.000000 0.000000 
4.954962 17.395263 0.797716 -179.046949 -73.380345 -161.249104 -10.640506 0.116776 -4.226200 -10.192411 22.680377 -20.893999 -2.833855 -1.044402 -1.322742 1.968501 14.869616 3.092120 3.093900 -0.000000 -38.691000 9.555744 -0.120458 2.329483 0.331542 8.258768 -20.656241 2.183298 1.050118 -4.538355 0.319508 0.438627 11.167736 -0.519800 0.000000 -62.961199 -0.595909 -0.623876 3.465893 -0.826866 -0.484074 -2.544563 -6.433038 -0.383346 -1.585335 5.316360 -7.484834 -0.400050 -2.582340 -0.276045 1.819779 0.000000 0.000000 0.000000 5.284706 -0.299097 -0.105979 -57.196669 -5.142315 26.340979 -179.354389 -74.201848 179.959605 6.151034 0.310660 -0.003272 -0.179945 0.418583 -0.000000 0.000000 0.000000 0.000000 0.000000 0.000000 0.000000 0.841367 -3.570978 -0.900477 79.617448 13.246363 40.154038 179.964383 81.497850 179.926619 -10.923419 6.115025 -0.648220 0.226491 -0.542684 -0.000000 0.000000 0.000000 0.000000 0.000000 0.000000 0.000000 
4.958155 17.395462 0.798197 -179.096704 -72.950886 -161.324478 -10.641116 0.145776 -4.248783 -10.199863 22.885105 -20.839845 -2.833217 -1.027122 -1.126815 1.998484 15.043953 2.966760 3.094400 -0.000000 -38.568801 9.551865 -0.128874 2.395764 0.254529 8.483723 -20.683821 2.183179 1.036529 -4.419904 0.344391 0.608391 11.191995 -0.462399 -0.000000 -63.023400 -0.455559 -0.619149 3.413921 -0.825081 -0.492271 -2.517788 -6.519502 -0.389230 -1.446771 5.260612 -7.521997 -0.325174 -2.547925 -0.275025 1.840828 0.000000 0.000000 0.000000 5.418501 -0.390263 -0.003192 -55.102077 -6.221146 26.817889 -179.328157 -74.211214 179.963285 5.688449 0.494373 0.007006 -0.173994 0.407665 -0.000000 0.000000 0.000000 0.000000 0.000000 0.000000 0.000000 0.717214 -3.635699 -0.906634 79.485619 13.584264 40.688036 179.958617 81.391382 179.927180 -10.877823 6.075567 -0.641713 0.228047 -0.542034 -0.000000 0.000000 0.000000 0.000000 0.000000 0.000000 0.000000 
4.960593 17.395487 0.799362 -179.141715 -72.528658 -161.412128 -10.644518 0.177626 -4.265117 -10.206538 23.094032 -20.778230 -2.833197 -1.011336 -0.944416 2.026325 15.206623 2.844819 3.092600 -0.000000 -38.452100 9.546768 -0.140749 2.466329 0.180060 8.701968 -20.704024 2.184142 1.024127 -4.306128 0.369439 0.777849 11.215203 -0.405400 -0.000000 -63.091800 -0.312214 -0.614947 3.347316 -0.823877 -0.501755 -2.492332 -6.607278 -0.396681 -1.306390 5.234522 -7.571783 -0.260461 -2.510928 -0.273779 1.859713 0.000000 0.000000 0.000000 5.589142 -0.505289 0.102901 -52.919998 -7.355017 27.214112 -179.311549 -74.233792 179.966637 5.257362 0.629115 0.013381 -0.167618 0.397988 -0.000000 0.000000 0.000000 0.000000 0.000000 0.000000 0.000000 0.623885 -3.712572 -0.904426 79.307831 13.936746 41.222422 179.951949 81.279781 179.927743 -10.833228 6.032732 -0.635004 0.229803 -0.541362 -0.000000 0.000000 0.000000 0.000000 0.000000 0.000000 0.000000 
4.962244 17.395390 0.801283 -179.181630 -72.113277 -161.511970 -10.650757 0.212168 -4.275303 -10.212702 23.307165 -20.708477 -2.833756 -0.997314 -0.778864 2.051929 15.357661 2.727890 3.088900 -0.000000 -38.338100 9.540479 -0.156026 2.540916 0.108544 8.912405 -20.717971 2.186323 1.012824 -4.197645 0.394886 0.948658 11.239653 -0.347999 0.000000 -63.165300 -0.165169 -0.610654 3.266595 -0.822904 -0.511908 -2.467849 -6.695530 -0.405032 -1.163201 5.237634 -7.632495 -0.207655 -2.470618 -0.272231 1.875917 0.000000 0.000000 0.000000 5.782164 -0.630192 0.212637 -50.641655 -8.555555 27.523980 -179.304815 -74.278788 179.969616 4.867068 0.718804 0.016851 -0.161131 0.389567 -0.000000 0.000000 0.000000 0.000000 0.000000 0.000000 0.000000 0.558249 -3.800381 -0.895548 79.087436 14.298783 41.750490 179.944714 81.161989 179.928310 -10.789040 5.985781 -0.627893 0.231654 -0.540603 -0.000000 0.000000 0.000000 0.000000 0.000000 0.000000 0.000000 
4.963135 17.395238 0.804012 -179.216465 -71.704932 -161.624249 -10.659772 0.249106 -4.280159 -10.218288 23.525527 -20.629800 -2.834906 -0.985117 -0.631718 2.075233 15.496974 2.616364 3.083500 -0.000001 -38.227800 9.533099 -0.174437 2.618675 0.040611 9.113852 -20.725073 2.189836 1.002489 -4.094733 0.420959 1.122717 11.266154 -0.289700 0.000001 -63.243400 -0.015660 -0.606310 3.173610 -0.821948 -0.522647 -2.444630 -6.782155 -0.414339 -1.019656 5.269287 -7.701388 -0.165744 -2.426234 -0.270346 1.889716 0.000000 0.000000 0.000000 5.993675 -0.765277 0.324510 -48.268633 -9.809320 27.735467 -179.309024 -74.354542 179.972209 4.522783 0.767110 0.017920 -0.154520 0.382371 -0.000000 0.000000 0.000000 0.000000 0.000000 0.000000 0.000000 0.516146 -3.895998 -0.880460 78.826200 14.664911 42.266074 179.937161 81.038178 179.928877 -10.745723 5.935547 -0.620582 0.233536 -0.539727 -0.000000 0.000000 0.000000 0.000000 0.000000 0.000000 0.000000 
4.963272 17.394952 0.807622 -179.242437 -71.303209 -161.751400 -10.671325 0.287981 -4.282160 -10.222262 23.753463 -20.540972 -2.837076 -0.974443 -0.500599 2.095700 15.620783 2.508059 3.075100 -0.000000 -38.121400 9.525069 -0.195465 2.697741 -0.022880 9.304378 -20.723381 2.194776 0.992839 -3.996803 0.447906 1.302710 11.294335 -0.229400 0.000000 -63.327000 0.129582 -0.603248 3.072750 -0.821162 -0.534799 -2.424005 -6.861460 -0.425970 -0.883743 5.331186 -7.777478 -0.129844 -2.377467 -0.268181 1.902496 0.000000 0.000000 0.000000 6.253124 -0.938317 0.431554 -45.850865 -11.048818 27.829928 -179.326618 -74.477563 179.974486 4.219698 0.766793 0.016984 -0.147099 0.376558 -0.000000 0.000000 0.000000 0.000000 0.000000 0.000000 0.000000 0.496642 -3.996611 -0.856755 78.520679 15.033313 42.766774 179.929049 80.908908 179.929434 -10.706251 5.883042 -0.613271 0.235574 -0.538722 -0.000000 0.000000 0.000000 0.000000 0.000000 0.000000 0.000000 
4.962683 17.394650 0.812149 -179.261323 -70.907814 -161.892359 -10.685353 0.328528 -4.281037 -10.224729 23.988025 -20.441455 -2.839769 -0.965467 -0.388821 2.113854 15.732983 2.405138 3.065100 -0.000001 -38.018500 9.516361 -0.218704 2.777478 -0.081286 9.482694 -20.713278 2.201295 0.983934 -3.906088 0.475900 1.489636 11.327474 -0.166801 0.000000 -63.414500 0.273670 -0.600968 2.965044 -0.819804 -0.547958 -2.405024 -6.933900 -0.439311 -0.752053 5.420007 -7.857615 -0.103392 -2.323514 -0.265622 1.913194 0.000000 0.000000 0.000000 6.530851 -1.122158 0.537493 -43.359704 -12.305824 27.816246 -179.355362 -74.656280 179.976465 3.952152 0.743060 0.015241 -0.139133 0.371530 -0.000000 0.000000 0.000000 0.000000 0.000000 0.000000 0.000000 0.493184 -4.099747 -0.828305 78.179026 15.396897 43.244942 179.920967 80.772809 179.929988 -10.668526 5.828712 -0.605861 0.237565 -0.537543 -0.000000 0.000000 0.000000 0.000000 0.000000 0.000000 0.000000 
4.961324 17.394363 0.817630 -179.270025 -70.518368 -162.047975 -10.701693 0.370399 -4.278003 -10.224541 24.229561 -20.330711 -2.842943 -0.957971 -0.294852 2.129752 15.833590 2.306659 3.053400 -0.000000 -37.919200 9.507205 -0.243679 2.856451 -0.133612 9.647435 -20.693360 2.209515 0.975724 -3.823347 0.505066 1.684795 11.366534 -0.101200 0.000000 -63.506400 0.413624 -0.600486 2.853524 -0.817578 -0.562848 -2.388066 -6.996022 -0.455330 -0.627574 5.535156 -7.940585 -0.085385 -2.264053 -0.262656 1.922045 0.000000 0.000000 0.000000 6.835731 -1.322513 0.640115 -40.819924 -13.551650 27.692196 -179.394741 -74.905745 179.978269 3.704351 0.704739 0.013093 -0.130122 0.367016 -0.000000 0.000000 0.000000 0.000000 0.000000 0.000000 0.000000 0.502895 -4.203336 -0.795350 77.802409 15.752997 43.697595 179.912934 80.629714 179.930537 -10.633628 5.773474 -0.598653 0.239530 -0.536170 -0.000000 0.000000 0.000000 0.000000 0.000000 0.000000 0.000000 
